<svg width="1080" height="900" xmlns="http://www.w3.org/2000/svg">

 <g>
  <title>Layer 1</title>
  
  <path id="svg_72" d="m1.41266,0.11696l1080,0l0,900l-1080,0l0,-900z" opacity="undefined" stroke="#000" fill="#f6def7"/>

  <line id="svg_11" y2="983.3659" x2="1160.72173" y1="983.3659" x1="1162.15031" stroke="#000" fill="none"/>
  <rect transform="rotate(-29.2642 978.53 787.115)" stroke="#000" id="svg_13" height="23.7879" width="78.78475" y="775.22066" x="939.13733" fill="#cccccc"/>
  <rect stroke="#000" id="svg_29" height="55.00304" width="177.50372" y="80.11897" x="300.59906" fill="#cccccc"/>
  <rect stroke="#000" id="svg_30" height="86.90786" width="570.57113" y="742.97712" x="89.50338" fill="#cccccc"/>
  <text xml:space="preserve" text-anchor="start" font-family="Noto Sans JP" font-size="24" stroke-width="0" id="svg_31" y="683.72257" x="692.71089" stroke="#000" fill="#000000">3</text>
  <text xml:space="preserve" text-anchor="start" font-family="Noto Sans JP" font-size="24" id="svg_32" y="681.50785" x="642.87073" stroke-width="0" stroke="#000" fill="#000000">4</text>
  <text xml:space="preserve" text-anchor="start" font-family="Noto Sans JP" font-size="24" id="svg_34" y="692.21838" x="599.48895" stroke-width="0" stroke="#000" fill="#000000">5</text>
  <text xml:space="preserve" text-anchor="start" font-family="Noto Sans JP" font-size="24" id="svg_35" y="706.94414" x="549.16178" stroke-width="0" stroke="#000" fill="#000000">6</text>
  <text xml:space="preserve" text-anchor="start" font-family="Noto Sans JP" font-size="24" id="svg_36" y="705.65855" x="503.17722" stroke-width="0" stroke="#000" fill="#000000">7</text>
  <text xml:space="preserve" text-anchor="start" font-family="Noto Sans JP" font-size="24" id="svg_37" y="706.82943" x="457.66754" stroke-width="0" stroke="#000" fill="#000000">8</text>
  <text xml:space="preserve" text-anchor="start" font-family="Noto Sans JP" font-size="24" id="svg_39" y="851.93724" x="483.10105" stroke-width="0" stroke="#000" fill="#000000">checkout</text>
  <rect stroke="#000000" id="svg_45" height="36.18953" width="107.14128" y="862.1861" x="913.31212" fill="#cccccc"/>
  <text stroke="#000" xml:space="preserve" text-anchor="start" font-family="Noto Sans JP" font-size="24" id="svg_46" y="886.01912" x="919.75548" stroke-width="0" fill="#000000">entrance</text>
  <rect stroke="#000" id="svg_50" height="29.49486" width="106.0904" y="677.6644" x="900.4987" fill="#cccccc"/>
  <text stroke="#000" xml:space="preserve" text-anchor="start" font-family="Noto Sans JP" font-size="24" stroke-width="0" id="svg_51" y="600.52835" x="913.72782" fill="#000000">produce</text>
  <rect stroke="#000" id="svg_52" height="309.72893" width="34.85521" y="297.71077" x="784.51923" fill="#cccccc"/>
  <rect stroke="#000" id="svg_54" height="54.16972" width="180.0037" y="80.11894" x="489.76615" fill="#cccccc"/>
  <rect transform="rotate(65.5809 1032.64 147.324)" stroke="#000" id="svg_55" height="37.67552" width="148.33253" y="128.48584" x="958.47746" fill="#cccccc"/>
  <rect stroke="#000000" id="svg_56" height="62.8562" width="107.14128" y="855.33784" x="157.45441" fill="#cccccc"/>
  <text transform="matrix(1.01758 0 0 1.05174 -3.54751 -99.935)" stroke="#000" xml:space="preserve" text-anchor="start" font-family="Noto Sans JP" font-size="24" id="svg_57" y="943.45104" x="114.03946" stroke-width="0" fill="#000000">exit</text>
  <text stroke="#000" xml:space="preserve" text-anchor="start" font-family="Noto Sans JP" font-size="24" stroke-width="0" id="svg_58" y="626.58247" x="773.37955" fill="#000000">butcher</text>
  <rect transform="rotate(0.452438 795.615 18.0812)" stroke="#000" id="svg_59" height="40.13956" width="165.5678" y="-1.98863" x="712.83129" fill="#cccccc"/>
  <text stroke="#000" xml:space="preserve" text-anchor="start" font-family="Noto Sans JP" font-size="24" stroke-width="0" id="svg_60" y="25.92831" x="775.97466" fill="#000000">fish</text>
  <text transform="rotate(62.7894 998.277 157.508)" stroke="#000" xml:space="preserve" text-anchor="start" font-family="Noto Sans JP" font-size="24" stroke-width="0" id="svg_61" y="165.4244" x="978.27051" fill="#000000">dips</text>
  <rect stroke="#000" id="svg_62" height="28.19066" width="99.11951" y="683.49442" x="720.07788" fill="#cccccc"/>
  <text stroke="#000" xml:space="preserve" text-anchor="start" font-family="Noto Sans JP" font-size="24" stroke-width="0" id="svg_63" y="734.37436" x="746.74342" fill="#000000">chips</text>
  <rect stroke="#000" id="svg_73" height="655.86695" width="22.26817" y="41.94353" x="-0.76132" fill="#cccccc"/>
  <text transform="rotate(-89.8249 31.3086 418.407)" stroke="#000" xml:space="preserve" text-anchor="start" font-family="Noto Sans JP" font-size="24" stroke-width="0" id="svg_64" y="426.03422" x="-116.60582" fill="#000000">dairy (eggs, cheese, ice cream)</text>
  <rect stroke="#000" id="svg_74" height="37.32761" width="288.74511" y="0.38202" x="397.11179" fill="#cccccc"/>
  <text stroke="#000" xml:space="preserve" text-anchor="start" font-family="Noto Sans JP" font-size="24" stroke-width="0" id="svg_53" y="25.71087" x="472.92661" fill="#000000">packaged meat</text>
  <rect stroke="#000" id="svg_75" height="34.16971" width="358.60018" y="2.2699" x="27.81347" fill="#cccccc"/>
  <text stroke="#000" xml:space="preserve" text-anchor="start" font-family="Noto Sans JP" font-size="24" stroke-width="0" id="svg_49" y="30.53247" x="111.99082" fill="#000000">dairy (yogurt, milk)</text>
  <rect stroke="#000" id="svg_76" height="567.92542" width="26.1063" y="230.9151" x="1053.13441" fill="#cccccc"/>
  <text transform="rotate(90.2597 1066.58 546.333) matrix(0.880308 0 0 0.904513 140.945 90.5767)" stroke="#000" xml:space="preserve" text-anchor="start" font-family="Noto Sans JP" font-size="24" stroke-width="0" id="svg_47" y="511.58183" x="1012.85505" fill="#000000">produce</text>
  <g stroke="null" id="svg_77">
   <rect stroke="#000" id="svg_1" height="561.94632" width="15.61474" y="133.59473" x="47.53173" fill="#cccccc"/>
   <line stroke="#000" id="svg_65" y2="695.28918" x2="55.19638" y1="131.63057" x1="55.65949" fill="none"/>
  </g>
  <g stroke="null" id="svg_80">
   <rect stroke="#000" id="svg_78" height="559.05791" width="15.61474" y="137.93242" x="87.18364" fill="#cccccc"/>
   <line stroke="#000" id="svg_79" y2="696.73975" x2="94.84829" y1="135.97836" x1="95.31141" fill="none"/>
  </g>
  <g stroke="null" id="svg_83">
   <rect stroke="#000" id="svg_81" height="566.27901" width="17.06402" y="133.99548" x="124.89166" fill="#cccccc"/>
   <line stroke="#000" id="svg_82" y2="700.02067" x2="133.2677" y1="132.01617" x1="133.77379" fill="none"/>
  </g>
  <g stroke="null" id="svg_86">
   <rect stroke="#000" id="svg_84" height="567.72326" width="17.06402" y="130.71635" x="167.35179" fill="#cccccc"/>
   <line stroke="#000" id="svg_85" y2="698.18514" x2="175.72783" y1="128.73199" x1="176.23393" fill="none"/>
  </g>
  <g stroke="null" id="svg_89">
   <rect stroke="#000" id="svg_87" height="570.61169" width="17.06402" y="132.17576" x="209.38095" fill="#cccccc"/>
   <line stroke="#000" id="svg_88" y2="702.53168" x2="217.75699" y1="130.18131" x1="218.26309" fill="none"/>
  </g>
  <g stroke="null" id="svg_92">
   <rect stroke="#000" id="svg_90" height="567.72307" width="15.61474" y="130.71652" x="251.41012" fill="#cccccc"/>
   <line stroke="#000" id="svg_91" y2="698.18513" x2="259.07477" y1="128.73217" x1="259.53789" fill="none"/>
  </g>
  <g stroke="null" id="svg_95">
   <rect stroke="#000" id="svg_93" height="504.1771" width="18.51329" y="197.16104" x="291.99001" fill="#cccccc"/>
   <line stroke="#000" id="svg_94" y2="701.11217" x2="301.07744" y1="195.3988" x1="301.62653" fill="none"/>
  </g>
  <g stroke="null" id="svg_98">
   <rect stroke="#000" id="svg_96" height="507.06555" width="19.96257" y="194.27258" x="336.91774" fill="#cccccc"/>
   <line stroke="#000" id="svg_97" y2="701.11086" x2="346.71657" y1="192.50024" x1="347.30863" fill="none"/>
  </g>
  <rect stroke="#000" id="svg_99" height="30.94414" width="97.39475" y="618.2439" x="904.84652" fill="#cccccc"/>
  <rect stroke="#000" id="svg_100" height="32.39341" width="94.49619" y="545.77993" x="903.39724" fill="#cccccc"/>
  <rect stroke="#000" id="svg_101" height="29.49486" width="106.0904" y="484.91014" x="900.4987" fill="#cccccc"/>
  <rect stroke="#000" id="svg_102" height="29.49486" width="106.0904" y="422.59109" x="897.60014" fill="#cccccc"/>
  <rect stroke="#000" id="svg_103" height="29.49486" width="106.0904" y="355.92423" x="897.60015" fill="#cccccc"/>
  <rect transform="rotate(0.452438 941.992 19.5304)" stroke="#000" id="svg_104" height="40.50577" width="119.19242" y="-0.72246" x="882.39578" fill="#cccccc"/>
  <text stroke="#000" xml:space="preserve" text-anchor="start" font-family="Noto Sans JP" font-size="24" stroke-width="0" id="svg_105" y="27.37758" x="920.9022" fill="#000000">bread</text>
  <g stroke="null" id="svg_108">
   <rect stroke="#000" id="svg_106" height="455.07336" width="18.51329" y="241.91695" x="384.74383" fill="#cccccc"/>
   <line stroke="#000" id="svg_107" y2="696.78634" x2="393.83126" y1="240.32634" x1="394.38034" fill="none"/>
  </g>
  <g stroke="null" id="svg_111">
   <rect stroke="#000" id="svg_109" height="508.50976" width="18.51329" y="189.92982" x="430.22171" fill="#cccccc"/>
   <line stroke="#000" id="svg_110" y2="698.21166" x2="439.30914" y1="188.15244" x1="439.85823" fill="none"/>
  </g>
  <g stroke="null" id="svg_114">
   <rect stroke="#000" id="svg_112" height="507.06555" width="18.5133" y="191.37403" x="476.98375" fill="#cccccc"/>
   <line stroke="#000" id="svg_113" y2="698.2123" x2="486.07118" y1="189.60169" x1="486.62026" fill="none"/>
  </g>
  <g stroke="null" id="svg_117">
   <rect stroke="#000" id="svg_115" height="533.06164" width="20.32947" y="166.27687" x="570.6546" fill="#cccccc"/>
   <line stroke="#000" id="svg_116" y2="699.09958" x2="580.63352" y1="164.41367" x1="581.23647" fill="none"/>
  </g>
  <g stroke="null" id="svg_120">
   <rect stroke="#000" id="svg_118" height="516.66321" width="20.32947" y="165.32062" x="617.58176" fill="#cccccc"/>
   <line stroke="#000" id="svg_119" y2="681.75225" x2="627.56068" y1="163.51474" x1="628.16363" fill="none"/>
  </g>
  <g stroke="null" id="svg_123">
   <rect stroke="#000" id="svg_121" height="505.62135" width="18.5133" y="191.36896" x="525.17673" fill="#cccccc"/>
   <line stroke="#000" id="svg_122" y2="696.76368" x2="534.26417" y1="189.60167" x1="534.81325" fill="none"/>
  </g>
  <g stroke="null" id="svg_126">
   <rect stroke="#000" id="svg_124" height="518.15427" width="22.86112" y="162.89402" x="715.17861" fill="#cccccc"/>
   <line stroke="#000" id="svg_125" y2="680.81604" x2="726.40021" y1="161.08293" x1="727.07825" fill="none"/>
  </g>
  <rect stroke="#000" id="svg_127" height="26.59631" width="98.89315" y="162.43369" x="742.0364" fill="#cccccc"/>
  <text stroke="#000" xml:space="preserve" text-anchor="start" font-family="Noto Sans JP" font-size="24" stroke-width="0" id="svg_128" y="153.41462" x="750.69663" fill="#000000">grabngo</text>
  <g stroke="null" id="svg_131">
   <rect stroke="#000" id="svg_129" height="506.55049" width="20.32947" y="162.75363" x="663.15151" fill="#cccccc"/>
   <line stroke="#000" id="svg_130" y2="669.07707" x2="673.13043" y1="160.98309" x1="673.73338" fill="none"/>
  </g>
  <text style="cursor: move;" xml:space="preserve" text-anchor="start" font-family="Noto Sans JP" font-size="24" id="svg_132" y="709.36108" x="412.09779" stroke-width="0" stroke="#000" fill="#000000">9</text>
  <text xml:space="preserve" text-anchor="start" font-family="Noto Sans JP" font-size="24" id="svg_135" y="711.13836" x="359.95599" stroke-width="0" stroke="#000" fill="#000000">10</text>
  <text stroke="#000" xml:space="preserve" text-anchor="start" font-family="Noto Sans JP" font-size="24" id="svg_136" y="711.13836" x="312.62176" stroke-width="0" fill="#000000">11</text>
  <text xml:space="preserve" text-anchor="start" font-family="Noto Sans JP" font-size="24" id="svg_137" y="710.62691" x="266.54056" stroke-width="0" stroke="#000" fill="#000000">12</text>
  <text style="cursor: move;" xml:space="preserve" text-anchor="start" font-family="Noto Sans JP" font-size="24" id="svg_138" y="710.62691" x="226.13654" stroke-width="0" stroke="#000" fill="#000000">13</text>
  <text style="cursor: move;" xml:space="preserve" text-anchor="start" font-family="Noto Sans JP" font-size="24" id="svg_139" y="714.66731" x="183.71231" stroke-width="0" stroke="#000" fill="#000000">14</text>
  <text style="cursor: move;" xml:space="preserve" text-anchor="start" font-family="Noto Sans JP" font-size="24" id="svg_140" y="712.64711" x="141.28809" stroke-width="0" stroke="#000" fill="#000000">15</text>
  <text style="cursor: move;" xml:space="preserve" text-anchor="start" font-family="Noto Sans JP" font-size="24" id="svg_141" y="713.65721" x="100.88407" stroke-width="0" stroke="#000" fill="#000000">16</text>
  <rect transform="rotate(-89.6367 887.852 846.437)" stroke="#000" id="svg_142" height="31.95861" width="107.23514" y="830.45725" x="834.23413" fill="#cccccc"/>
  <g id="svg_143">
   <rect transform="rotate(50.7523 899.353 207.706)" stroke="#000" id="svg_20" height="28.58223" width="82.45683" y="193.41511" x="858.12452" fill="#cccccc"/>
   <text transform="rotate(57.6516 900.386 206.263)" stroke="#000" xml:space="preserve" text-anchor="start" font-family="Noto Sans JP" font-size="24" stroke-width="0" id="svg_43" y="213.89044" x="863.73999" fill="#000000">cheeses</text>
  </g>
  <rect stroke="#000" id="svg_147" height="28.29123" width="80.24908" y="240.39978" x="942.03639" fill="#cccccc"/>
  <text stroke="#000" xml:space="preserve" text-anchor="start" font-family="Noto Sans JP" font-size="24" stroke-width="0" id="svg_148" y="289.00783" x="945.61188" fill="#000000">pastries</text>
  <text transform="rotate(-89.8249 75.0586 409.933)" stroke="#000" xml:space="preserve" text-anchor="start" font-family="Noto Sans JP" font-size="24" stroke-width="0" id="svg_149" y="417.55965" x="44.41113" fill="#000000">frozen</text>
  <rect transform="rotate(-89.6367 13.055 791.34)" stroke="#000" id="svg_150" height="31.95861" width="176.70377" y="775.36106" x="-75.29687" fill="#cccccc"/>
  <text transform="rotate(-89.8249 11.9363 786.204)" stroke="#000" xml:space="preserve" text-anchor="start" font-family="Noto Sans JP" font-size="24" stroke-width="0" id="svg_151" y="793.83083" x="-23.38548" fill="#000000">alcohol</text>
 </g>
</svg>